<svg xmlns="http://www.w3.org/2000/svg" version="1.1" x="0px" y="0px" viewBox="0 0 64 80"
     style="enable-background:new 0 0 64 64;" xml:space="preserve"><g><path d="M20.726,32.738L23,34.186l2.274-1.447C31.364,28.863,35,22.239,35,15.021v-2.57L23,4.814l-12,7.637v2.57   C11,22.239,14.636,28.863,20.726,32.738z M24.201,31.051L23,31.815l-1.2-0.764c-1.866-1.187-3.47-2.665-4.785-4.347   C17.171,23.533,19.791,21,23,21c3.209,0,5.829,2.533,5.985,5.704C27.67,28.386,26.066,29.864,24.201,31.051z M21,17v-2   c0-1.103,0.897-2,2-2s2,0.897,2,2v2c0,1.103-0.897,2-2,2S21,18.103,21,17z M13,13.549l10-6.363l10,6.363v1.472   c0,3.347-0.869,6.549-2.453,9.351c-0.757-2.167-2.415-3.911-4.529-4.776C26.622,18.895,27,17.995,27,17v-2c0-2.206-1.794-4-4-4   s-4,1.794-4,4v2c0,0.995,0.378,1.895,0.982,2.596c-2.114,0.865-3.772,2.61-4.529,4.776C13.869,21.57,13,18.368,13,15.021V13.549z"/><rect
        x="5" y="51" width="2" height="2"/><rect x="9" y="51" width="2" height="2"/><rect x="13" y="51" width="2"
                                                                                          height="2"/><path
        d="M58,13h-1V1H7v12H6c-2.757,0-5,2.243-5,5v34c0,2.757,2.243,5,5,5h13v4h-4v2h34v-2h-4v-4h13c2.757,0,5-2.243,5-5V18   C63,15.243,60.757,13,58,13z M6,15h3V3h46v34H9V17H7v22h50V15h1c1.654,0,3,1.346,3,3v31H19.414l-2-2H3V18C3,16.346,4.346,15,6,15z    M58,55H23v2h20v4H21v-6H6c-1.654,0-3-1.346-3-3v-3h13.586l2,2H61v1C61,53.654,59.654,55,58,55z"/><rect
        x="37" y="5" width="16" height="2"/><rect x="37" y="9" width="16" height="2"/><rect x="41" y="13" width="12"
                                                                                            height="2"/><rect x="37"
                                                                                                              y="13"
                                                                                                              width="2"
                                                                                                              height="2"/><rect
        x="37" y="17" width="16" height="2"/><rect x="37" y="21" width="16" height="2"/><rect x="51" y="25" width="2"
                                                                                              height="2"/><rect x="37"
                                                                                                                y="25"
                                                                                                                width="12"
                                                                                                                height="2"/><rect
        x="37" y="29" width="16" height="2"/><rect x="44" y="33" width="2" height="2"/><rect x="40" y="33" width="2"
                                                                                             height="2"/><rect x="48"
                                                                                                               y="33"
                                                                                                               width="2"
                                                                                                               height="2"/></g>
    </svg>